# xmcd CD database file
#
# Track frame offsets:
#	150
#	14685
#	33925
#	48890
#	66635
#	89092
#	105440
#	121065
#	138130
#	157187
#	176002
#	193767
#	213065
#	233995
#	252980
#
# Disc length: 3594 seconds
#
# Revision: 3
# Processed by: cddbd v1.5PL3 Copyright (c) Steve Scherf et al.
# Submitted via: CDex 1.50
#
DISCID=d20e080f
DTITLE=Various Artist - Folk Village Vol.2 〜フォーク＆ニューミュージック大全集〜 日本クラウン編 Disc1
DYEAR=2001
DGENRE=Folk
TTITLE0=風 - ２２才の別れ
TTITLE1=風 - でい　どりーむ
TTITLE2=風 - お前だけが
TTITLE3=風 - あの唄はもう唄わないのですか
TTITLE4=イルカ - 君と歩いた青春
TTITLE5=イルカ - なごり雪
TTITLE6=イルカ - 雨の物語
TTITLE7=イルカ - 海岸通
TTITLE8=南こうせつ - サラダの国から来た娘
TTITLE9=南こうせつ - 愛する人へ
TTITLE10=南こうせつ - 思い出にしてしまえるさ
TTITLE11=南こうせつ - 夢一夜
TTITLE12=南こうせつ - 九州へ帰る友へ
TTITLE13=かぐや姫 - 遥かなる想い
TTITLE14=かぐや姫 - 湘南　夏
EXTD=YEAR: 2001
EXTT0=
EXTT1=
EXTT2=
EXTT3=
EXTT4=
EXTT5=
EXTT6=
EXTT7=
EXTT8=
EXTT9=
EXTT10=
EXTT11=
EXTT12=
EXTT13=
EXTT14=
PLAYORDER=
